<?xml version="1.0" encoding="UTF-8" standalone="no"?>
<!-- Created with Inkscape (http://www.inkscape.org/) -->

<svg
   version="1.1"
   id="svg2"
   width="373.81332"
   height="232.58667"
   viewBox="0 0 373.81332 232.58667"
   sodipodi:docname="DraftKings_Tagline_Stacked_FC_on_dark.eps"
   xmlns:inkscape="http://www.inkscape.org/namespaces/inkscape"
   xmlns:sodipodi="http://sodipodi.sourceforge.net/DTD/sodipodi-0.dtd"
   xmlns="http://www.w3.org/2000/svg"
   xmlns:svg="http://www.w3.org/2000/svg">
  <defs
     id="defs6" />
  <sodipodi:namedview
     id="namedview4"
     pagecolor="#ffffff"
     bordercolor="#000000"
     borderopacity="0.25"
     inkscape:showpageshadow="2"
     inkscape:pageopacity="0.0"
     inkscape:pagecheckerboard="0"
     inkscape:deskcolor="#d1d1d1" />
  <g
     id="g8"
     inkscape:groupmode="layer"
     inkscape:label="ink_ext_XXXXXX"
     transform="matrix(1.3333333,0,0,-1.3333333,0,232.58667)">
    <g
       id="g10"
       transform="scale(0.1)">
      <path
         d="m 433.469,1550.02 c 0,0 1.363,-3.32 3.437,-9.06 -0.566,3.25 -1.195,6.47 -1.937,9.7 -0.492,-0.2 -0.977,-0.42 -1.5,-0.64"
         style="fill:#010101;fill-opacity:1;fill-rule:nonzero;stroke:none"
         id="path12" />
      <path
         d="m 433.469,1550.02 c 0,0 1.363,-3.32 3.437,-9.06 -0.566,3.25 -1.195,6.47 -1.937,9.7 -0.492,-0.2 -0.977,-0.42 -1.5,-0.64"
         style="fill:#010101;fill-opacity:1;fill-rule:nonzero;stroke:none"
         id="path14" />
      <path
         d="m 433.469,1550.02 c 0,0 1.363,-3.32 3.437,-9.06 -0.566,3.25 -1.195,6.47 -1.937,9.7 -0.492,-0.2 -0.977,-0.42 -1.5,-0.64"
         style="fill:#010101;fill-opacity:1;fill-rule:nonzero;stroke:none"
         id="path16" />
      <path
         d="m 2159.93,1232.38 h -374.57 c 8.16,-3 15.15,-7.45 21.04,-13.35 5.87,-5.87 10.76,-12.59 14.7,-20.12 3.9,-7.54 6.85,-15.46 8.81,-23.75 1.48,-6.17 2.38,-12.29 2.76,-18.4 v -27.12 -29.43 -96.62 -55.633 -2.816 c -0.71,-6.93 -2.1,-13.899 -4.34,-20.828 -2.41,-7.563 -5.65,-14.711 -9.72,-21.489 -4.07,-6.793 -8.9,-12.965 -14.47,-18.531 -5.6,-5.598 -11.84,-10.215 -18.78,-13.816 h 222.12 c -9.37,2.421 -17.2,6.464 -23.53,12.199 -6.34,5.73 -11.47,12.312 -15.37,19.683 -3.93,7.399 -6.72,15.454 -8.36,24.219 -1.66,8.735 -2.51,17.477 -2.51,26.235 v 81.417 c 12.67,0 24.6,-0.36 35.74,-1.12 11.16,-0.77 21.18,-3.12 30.08,-7.02 8.91,-3.93 16.58,-9.93 23.07,-18.1 6.47,-8.135 11.39,-19.599 14.72,-34.377 v 165.557 c -6.03,-13.87 -12.23,-24.62 -18.56,-32.32 -6.31,-7.7 -13.5,-13.43 -21.49,-17.2 -8,-3.76 -17.12,-6.03 -27.35,-6.8 -10.27,-0.73 -22.34,-1.12 -36.21,-1.12 v 99.51 l 67.87,-0.43 c 10.54,0 21.49,-0.46 32.79,-1.34 11.31,-0.93 22.33,-2.73 33.03,-5.46 10.71,-2.71 20.95,-6.63 30.77,-11.74 9.77,-5.13 18.32,-11.93 25.56,-20.36 2.4,-2.74 4.8,-5.96 7.24,-9.72 2.39,-3.8 4.06,-7.48 4.96,-11.09 v 111.28"
         style="fill:#61b510;fill-opacity:1;fill-rule:nonzero;stroke:none"
         id="path18" />
      <path
         d="M 2195.67,1232.38 V 1095.3 c 2.4,15.37 7.97,28.45 16.73,39.15 8.74,10.7 19.22,19.31 31.45,25.77 12.21,6.5 25.48,10.93 39.82,13.35 14.3,2.41 28.41,3.01 42.28,1.8 v -48.73 -12.78 -95.17 -50.37 -27.789 c -0.6,-5.922 -1.74,-11.793 -3.63,-17.582 -2.7,-8.437 -6.63,-16.136 -11.76,-23.066 -5.12,-6.942 -11.22,-12.977 -18.3,-18.106 -7.1,-5.129 -15.01,-8.879 -23.78,-11.3 H 2506 c -9.96,1.828 -18.69,5.488 -26.24,11.082 -7.56,5.566 -13.89,12.289 -19,20.125 -5.13,7.836 -8.98,16.347 -11.54,25.574 -2.57,9.207 -3.85,18.461 -3.85,27.82 v 2.68 62.902 98.18 56.53 h 11.76 c 7.54,0 17.34,-0.98 29.41,-2.92 12.07,-1.99 24.13,-5.59 36.2,-10.86 12.04,-5.3 23.07,-13.22 33,-23.75 9.97,-10.57 16.61,-24.3 19.91,-41.18 v 135.72 h -379.98"
         style="fill:#61b510;fill-opacity:1;fill-rule:nonzero;stroke:none"
         id="path20" />
      <path
         d="m 1468.93,1030.17 38,117.61 39.81,-117.61 z m 92.96,-141.15 c -6.5,-5.735 -12.88,-10.02 -19.22,-12.891 -6.33,-2.863 -10.4,-4.746 -12.23,-5.652 h 255.62 c -4.22,0.906 -8.24,2.406 -12,4.507 -3.78,2.133 -7.3,4.399 -10.63,6.793 -9.64,6.942 -17.8,14.395 -24.43,22.395 -6.64,8 -12.51,16.758 -17.64,26.23 -5.14,9.5 -9.72,19.77 -13.79,30.77 l -18.57,55.148 -25.09,74.46 -48.4,141.61 h -212.18 c 7.86,-2.13 14.27,-4.62 19.25,-7.49 4.96,-2.86 9.88,-6.76 14.68,-11.74 4.84,-4.99 8.3,-11.38 10.4,-19.25 1.5,-6.32 1.5,-12.96 0,-19.89 -1.5,-6.94 -3.46,-13.43 -5.87,-19.44 -6.03,-15.7 -10.62,-28.15 -13.81,-37.32 -0.95,-2.79 -1.97,-5.38 -3.06,-7.95 l -38.33,-99.05 c -2.1,-5.73 -5.27,-14.19 -9.5,-25.334 -4.23,-11.164 -8.95,-22.77 -14.25,-34.836 -5.27,-12.07 -10.84,-23.371 -16.74,-33.934 -5.87,-10.539 -11.38,-18.074 -16.51,-22.609 -5.13,-4.227 -10.38,-8.129 -15.84,-11.77 -5.4,-3.601 -9.72,-6.328 -12.88,-8.129 -3.15,-1.8 -4.89,-2.871 -5.2,-3.171 h 190.9 c -14.78,3.601 -26.16,10.707 -34.16,21.269 -7.96,10.539 -12.28,23.371 -12.88,38.438 0,3.007 0.68,7.242 2.05,12.671 1.33,5.434 3,10.918 4.97,16.512 1.94,5.578 3.98,10.93 6.11,16.059 2.07,5.129 3.61,9.07 4.5,11.765 h 101.79 5.43 c 0.9,-2.429 2.1,-5.816 3.63,-10.183 1.5,-4.371 3.08,-8.817 4.74,-13.352 1.65,-4.523 3.18,-8.894 4.54,-13.129 1.33,-4.207 2.32,-7.371 2.93,-9.472 2.72,-12.071 1.96,-22.336 -2.27,-30.766 -4.24,-8.441 -9.56,-15.535 -16.06,-21.269"
         style="fill:#61b510;fill-opacity:1;fill-rule:nonzero;stroke:none"
         id="path22" />
      <path
         d="M 1017.24,1083.09 V 1179 c 11.16,0 22.22,0.21 33.25,0.68 11,0.44 20.88,-0.6 29.62,-3.16 8.76,-2.57 15.83,-7.41 21.27,-14.48 5.43,-7.09 8.13,-18.05 8.13,-32.81 0,-13.57 -2.94,-23.68 -8.81,-30.3 -5.87,-6.64 -13.35,-11.09 -22.39,-13.35 -9.04,-2.27 -19.01,-3.23 -29.84,-2.95 -10.87,0.32 -21.27,0.46 -31.23,0.46 m 163.78,-32.14 c 9.39,4.37 17.77,9.86 25.22,16.69 l 2.35,2.35 c 0,0 4.29,4.04 9.72,11.03 0.38,0.52 0.82,1.01 1.2,1.55 10.54,14.04 24.38,38.25 20.17,65.23 h -0.02 c -0.6,9.75 -3.03,20 -7.78,29.61 -1.94,3.96 -4.89,9.42 -9.72,16.06 -6.04,8.47 -13.74,15.23 -23.07,20.36 -9.36,5.14 -19.3,9.05 -29.86,11.77 -10.55,2.7 -21.33,4.51 -32.34,5.41 -11.02,0.92 -21.21,1.37 -30.54,1.37 H 857.547 c 9.637,-2.71 17.418,-6.42 23.289,-11.09 5.894,-4.67 11.254,-11.68 16.055,-21.03 4.836,-9.36 7.394,-21.86 7.699,-37.53 0.301,-7.86 0.465,-15.87 0.465,-24 v -3.41 -20.56 -106.31 -12.204 -35.082 -7.891 c 0,-7.863 -1.016,-15.918 -2.953,-24.222 -1.965,-8.293 -4.829,-16.211 -8.594,-23.742 -3.77,-7.547 -8.606,-14.34 -14.477,-20.344 -5.867,-6.063 -12.746,-10.863 -20.582,-14.496 h 214.891 c -4.23,1.527 -8.84,3.469 -13.82,5.898 -4.96,2.395 -9.72,5.863 -14.24,10.399 -4.51,4.535 -8.52,10.539 -11.99,18.101 -3.46,7.535 -5.81,17.336 -6.99,29.406 -1.53,16.266 -2.13,32.844 -1.83,49.766 0.3,16.871 0.46,33.481 0.46,49.741 h 14.48 c 6.65,0 13.1,0.03 19.35,0.08 56.68,-132.348 76.39,-163.391 132.79,-163.391 h 124.12 c -42.48,0 -96.79,99.48 -134.65,180.481"
         style="fill:#61b510;fill-opacity:1;fill-rule:nonzero;stroke:none"
         id="path24" />
      <path
         d="m 928.051,1652.79 c -33.555,-15.26 -54.028,-47.65 -55.938,-82.07 -0.054,-0.02 -0.027,0 -0.082,-0.02 -25.668,18.12 -59.57,23.09 -90.527,10.84 1.195,-3.96 2.641,-7.86 4.387,-11.74 11.851,-26 33.859,-44.16 59.168,-51.9 -14.254,-22.09 -33.145,-41.23 -55.719,-55.84 -9.485,-6.6 -20.07,-9.22 -32.36,-10.7 -30.546,-3.63 -58.91,12.21 -72.726,37.7 -11.012,-19.62 -30.934,-33.93 -54.988,-36.8 -13.047,-1.56 -25.696,0.47 -36.996,5.25 -4.399,2.56 -8.731,5.26 -12.883,8.18 -24.621,17.18 -45.242,40.28 -59.457,67.85 -5.606,10.84 -10.188,22.36 -13.653,34.51 0.539,0.03 1.063,0.08 1.61,0.14 28.746,3.24 55.691,19.41 71.636,46.19 1.665,2.75 3.165,5.6 4.508,8.46 -2.566,1.88 -5.218,3.69 -8,5.33 -23.918,14.24 -51.523,16.84 -76.281,9.5 -2.926,-0.88 -5.844,-1.91 -8.715,-3.06 0.988,33.6 -24.238,84.17 -55.172,102.57 -3.465,2.07 -8.574,4.5 -12.179,6.09 l -2.723,1.12 -1.883,-2.41 c -2.406,-3.14 -4.644,-6.39 -6.695,-9.88 -18.238,-31.04 -13.211,-86.76 3.851,-115.75 -3.054,-0.36 -6.117,-0.88 -9.117,-1.53 -25.199,-5.5 -48.156,-21.09 -62.25,-45.08 -1.633,-2.79 -3.105,-5.62 -4.422,-8.52 2.539,-1.86 5.219,-3.6 8.028,-5.24 26.836,-15.81 58.234,-16.95 84.988,-5.95 0.519,0.22 1.012,0.41 1.5,0.63 2.812,-12.29 4.34,-24.61 4.672,-36.77 0.738,-27.53 -4.645,-54.34 -15.125,-78.8 -0.055,0.16 -0.082,0.36 -0.137,0.52 -0.246,-0.92 -0.574,-1.86 -0.851,-2.82 -1.059,-2.34 -2.157,-4.69 -3.301,-7.01 -2.758,-5.62 -5.813,-11.08 -9.141,-16.39 -7.699,-9.71 -17.996,-17.6 -30.394,-22.46 -22.547,-8.87 -46.84,-5.71 -65.825,6.39 -0.109,-28.99 -17.609,-56.38 -46.246,-67.62 -6.629,-2.63 -13.429,-4.15 -20.226,-4.76 -30.528,0.52 -60.004,8.44 -86.137,22.55 18.461,19.01 29.02,45.52 26.836,73.99 -0.328,4.23 -0.953,12.01 -1.773,16.03 -33.063,-4.15 -60.368,-33.63 -74.125,-49.47 h -0.086 c -18.2582,15.84 -51.8129,44.09 -88.5629,41.3 C 15.8906,1424.69 7.80859,1420.76 0,1418 c 40.9258,-30.41 80.0234,-64.35 116.98,-99.75 25.915,-24.83 50.782,-51.31 74.536,-78.42 33.007,-37.75 89.386,-114.01 89.441,-113.98 6.93,-9.72 35.164,-22.26 54.246,-20.37 3.328,0.33 4.344,3.34 4.594,5.06 0.234,1.99 -3.203,3.19 -4.977,3.98 -16.648,7.29 -22.793,16.13 -27.3,30.3 -10.618,33.26 88.863,93.29 234.269,130.2 145.438,36.89 262.234,32.41 268.981,-1.91 2.863,-14.61 1.746,-25.31 -9.344,-39.72 -1.172,-1.56 -3.629,-4.29 -2.395,-5.93 1.032,-1.39 3.383,-3.57 6.461,-2.27 17.613,7.54 36.367,32.06 37.766,43.88 0,0 15.613,94.52 26.34,143.5 7.726,35.22 17.007,70 27.742,104.23 15.344,48.84 33.656,96.62 54.879,142.98 -8.164,-1.34 -16.278,-3.41 -24.168,-6.99"
         style="fill:#f7760d;fill-opacity:1;fill-rule:nonzero;stroke:none"
         id="path26" />
      <path
         d="m 414.324,1201.37 c 0,0 115.567,52.23 245.875,67.71 0,0 165.094,-16.25 165.094,-210.03 0,-193.788 -137.848,-304.413 -325.484,-304.413 -187.614,0 -286.555,82.703 -286.555,170.797 0,88.106 63.336,102.136 92.797,102.136 29.429,0 82.691,-26.59 82.691,-95.632 0,0 -53.012,13.019 -53.012,-32.844 0,-45.864 62.676,-74.43 148.625,-74.43 85.918,0 207.27,37.652 207.27,205.416 0,178.99 -82.828,186.99 -140.414,186.99 V 910.035 c 0,0 1.535,-27 30.117,-27 0,0 -30.281,-25.555 -105.223,-25.555 -74.937,0 -96.289,24.059 -96.289,24.059 0,0 35.469,-0.141 35.469,31.149 0,31.261 -0.961,288.682 -0.961,288.682"
         style="fill:#61b510;fill-opacity:1;fill-rule:nonzero;stroke:none"
         id="path28" />
      <path
         d="m 2492.37,559.73 c -2.62,7.579 -5.62,14.168 -8.89,19.821 -4.57,8.679 -12.35,17.91 -24.88,27.219 -0.03,0.031 -0.06,0.031 -0.06,0.05 -1.25,0.899 -2.48,1.801 -3.71,2.649 -0.08,0.051 -0.17,0.109 -0.25,0.16 -5.73,4.012 -11.52,7.531 -17.33,10.621 -42.59,22.691 -86.35,22.801 -121.46,31.051 -5.71,1.359 -11.2,2.91 -16.41,4.82 -1.96,0.77 -3.9,1.57 -5.84,2.438 -7.67,3.461 -14.56,7.781 -20.59,12.91 -5.73,5.109 -9.5,11.14 -11.3,18.07 -1.8,6.93 -1.2,12.672 1.8,17.199 4.53,6.942 10.49,12.762 17.88,17.422 7.4,4.668 15.62,8.219 24.65,10.621 9.05,2.399 18.63,3.547 28.72,3.41 10.11,-0.16 19.99,-1.582 29.66,-4.312 13.56,-3.598 24.32,-7.231 32.32,-10.859 8,-3.61 14.99,-7.84 21.05,-12.649 3,-2.422 6,-5.133 9.04,-8.16 3.02,-3 6.17,-6.172 9.5,-9.5 3.3,-3.301 7.01,-6.992 11.08,-11.09 4.07,-4.062 9.12,-8.949 15.15,-14.68 v 132.543 c 0,0 -10.15,-25.336 -50.43,-25.336 -11.3,0.301 -22.54,1.207 -33.71,2.704 -11.46,1.832 -23.07,3.687 -34.83,5.679 -11.74,1.938 -24.87,2.789 -39.35,2.461 -18.39,0 -36.28,-2.406 -53.61,-7.234 -17.34,-4.809 -32.79,-12.125 -46.36,-21.926 -13.57,-9.801 -24.44,-22.172 -32.61,-37.102 -8.1,-14.929 -12.19,-32.652 -12.19,-53.16 0,-19 3.54,-34.23 10.64,-45.672 6.12,-9.937 13,-18.238 20.59,-25.007 l 0.11,-0.082 c 0.24,-0.25 0.54,-0.469 0.79,-0.707 0.9,-0.762 1.8,-1.532 2.7,-2.274 1.42,-1.199 2.86,-2.34 4.32,-3.488 29.31,-22.5 70.7,-33.399 118.56,-44.34 0.93,-0.219 1.77,-0.391 2.68,-0.578 0.14,-0.024 0.25,-0.051 0.36,-0.082 4.91,-1.09 9.83,-2.34 14.76,-3.77 9.97,-2.859 18.71,-6.32 26.24,-10.39 7.57,-4.071 13.44,-8.739 17.67,-14.008 4.2,-5.293 5.43,-11.082 3.6,-17.453 -3.01,-11.43 -9.04,-19.571 -18.07,-24.399 -9.07,-4.84 -19.25,-7.539 -30.55,-8.14 -11.3,-0.602 -22.85,0.281 -34.62,2.699 -11.74,2.43 -21.84,5.141 -30.31,8.172 -19,6.91 -37.53,16.269 -55.64,28.039 -11.46,7.832 -22.38,16.57 -32.78,26.23 -10.41,9.641 -19.99,21.102 -28.75,34.371 V 406.648 c 0,0 16.04,11.872 55.96,16.84 0.06,-0.058 0.09,-0.109 0.17,-0.168 6.36,1.071 12.75,1.7 19.19,1.809 9.83,0.16 19.63,-0.598 29.41,-2.258 9.8,-1.652 19.54,-3.82 29.18,-6.562 10.56,-2.7 21.05,-4.668 31.45,-5.868 10.4,-1.203 21.05,-1.832 31.89,-1.832 17.8,0 35.66,2.051 53.59,6.121 17.96,4.071 34.1,10.86 48.4,20.36 14.34,9.5 26.05,21.851 35.09,37.082 9.04,15.226 13.4,34.019 13.13,56.316 -1.53,12.071 -3.8,22.481 -6.8,31.242"
         style="fill:#ffffff;fill-opacity:1;fill-rule:nonzero;stroke:none"
         id="path30" />
      <path
         d="m 1656.38,701.762 c 0,5.738 0.3,11.937 0.9,18.566 0.59,6.613 1.83,13.113 3.63,19.434 1.8,6.34 4.28,12.207 7.45,17.64 3.17,5.43 7.34,10.047 12.45,14.036 9.07,7.066 17.77,7.367 18.1,7.671 h -166.02 c 10.24,-0.906 18.62,-4.043 25.09,-9.5 6.49,-5.406 11.61,-12.125 15.37,-20.125 3.8,-7.972 6.34,-16.656 7.7,-26.015 1.36,-9.328 2.05,-18.078 2.05,-26.239 V 535.281 l -155.62,243.828 h -188.19 c 10.24,-0.578 18.54,-3.687 24.87,-9.254 6.34,-5.597 11.15,-12.453 14.47,-20.589 3.33,-8.125 5.6,-16.895 6.8,-26.235 1.2,-9.332 1.8,-17.941 1.8,-25.801 0,-3.601 0.05,-8.98 0.22,-16.05 v -13.032 -145.968 -8.629 -3.852 c -0.08,-7.59 -0.28,-15.211 -0.68,-22.82 -0.3,-5.738 -0.74,-11.609 -1.34,-17.641 -0.6,-6.039 -1.8,-11.847 -3.63,-17.418 -1.8,-5.57 -4.36,-10.789 -7.67,-15.621 -3.33,-4.808 -7.7,-8.871 -13.13,-12.199 -0.91,-0.602 -2.27,-1.281 -4.07,-2.051 -1.8,-0.73 -3.71,-1.418 -5.65,-2.019 -1.97,-0.602 -3.71,-1.2 -5.21,-1.801 -1.51,-0.617 -2.41,-0.899 -2.71,-0.899 h 162.39 c -4.5,2.399 -8.35,4.579 -11.52,6.551 -3.17,1.957 -6.33,4.231 -9.5,6.77 -3.17,2.558 -5.82,5.051 -7.92,7.48 -6.93,8.438 -11.47,18.399 -13.57,29.867 -2.1,11.442 -3.16,22.442 -3.16,33 V 660.262 L 1513.21,417.23 h 10.16 92.52 11.3 53.16 18.56 c -0.33,0.301 -9.03,0.622 -18.1,7.668 -5.11,3.993 -9.28,8.602 -12.45,14.043 -3.17,5.43 -5.65,11.297 -7.45,17.629 -1.8,6.328 -3.04,12.828 -3.63,19.461 -0.6,6.641 -0.9,12.809 -0.9,18.547 v 85.5 121.684"
         style="fill:#ffffff;fill-opacity:1;fill-rule:nonzero;stroke:none"
         id="path32" />
      <path
         d="m 1160.29,561.121 v 143.5 c 0.3,6.66 0.97,13.098 2.1,19.301 1.5,8.437 4.07,16.219 7.67,23.316 3.63,7.067 8.6,13.348 14.93,18.75 6.34,5.434 14.34,9.805 24,13.141 H 992.734 c 9.966,-3.008 17.966,-7.324 23.976,-12.891 6.03,-5.597 11.55,-13.816 16.52,-24.679 4.96,-10.848 7.48,-25.637 7.48,-44.309 V 679.23 647.941 507.309 c 0,-6.028 -0.17,-13.289 -0.47,-21.778 -0.3,-14.179 -2.87,-25.722 -7.7,-34.621 -4.81,-8.879 -10.15,-15.84 -16.05,-20.801 -1.09,-0.929 -2.35,-1.8 -3.58,-2.711 -53.019,21.602 -108.246,74.864 -149.144,138.743 -24.082,37.597 -51.278,87.418 -73.934,130.918 21.297,26.64 41.668,51.429 58.098,70.332 0.578,0.621 44.336,46.949 116.441,61.558 H 787.84 c 0,0 16.191,-23.203 -7.121,-51.41 L 663.727,636.09 v 116.113 c -1.25,-0.543 -2.512,-1.117 -3.766,-1.637 -5.047,-2.05 -10.27,-4.015 -15.563,-5.843 -15.261,-5.352 -31.91,-9.883 -49.437,-13.434 -5.734,-1.168 -11.715,-2.269 -17.723,-3.219 -14.113,-2.48 -26.402,-4.039 -38.035,-4.781 V 567.301 511.41 l -0.758,-16.269 c -0.382,-4.352 -0.906,-8.719 -1.554,-13.243 -1.563,-10.347 -4.344,-20.019 -8.301,-28.968 -3.961,-8.989 -9.473,-16.739 -16.551,-23.289 -7.066,-6.551 -16.293,-10.711 -27.676,-12.422 h 226.461 c -9.664,2.07 -17.609,6.742 -23.808,13.98 -6.227,7.231 -11.055,15.942 -14.493,26.129 -3.472,10.152 -5.871,21.371 -7.269,33.633 -1.363,12.23 -2.129,24.219 -2.313,35.961 -0.027,2.199 -0.054,4.328 -0.054,6.488 9.004,11.879 22.957,30.262 39.609,51.93 8.934,-15.051 18.461,-30.692 28.289,-46.25 46.813,-74.09 84.164,-122.012 143.524,-122.012 59.375,0 333.751,0.141 333.751,0.141 -9.94,4.23 -17.93,9.281 -23.97,15.152 -6.03,5.891 -11.52,14.168 -16.49,24.879 -4.29,9.172 -6.71,20.82 -7.31,35 v 15.059 53.812"
         style="fill:#ffffff;fill-opacity:1;fill-rule:nonzero;stroke:none"
         id="path34" />
      <path
         d="m 1950.47,596.809 c 5.81,-5.731 9.74,-12.508 11.79,-20.368 2.05,-7.832 2.92,-16.48 2.6,-25.98 -0.31,-9.5 -0.31,-19.09 0,-28.723 0,-4.84 0.15,-10.488 0.45,-16.988 0.33,-6.469 -0.54,-12.672 -2.56,-18.539 -2.04,-5.891 -6,-10.859 -11.79,-14.93 -5.84,-4.07 -14.72,-6.109 -26.68,-6.109 -13.84,0 -25.01,3.019 -33.52,9.058 -8.5,6.008 -15.26,13.7 -20.29,23.04 -4.77,8.902 -8.25,18.789 -10.45,29.57 v -0.219 c -12.37,49.82 -9.88,96.75 -1.1,141.891 2.35,10.718 6.15,20.5 11.33,29.429 5.19,8.868 12.01,16.258 20.51,22.161 8.51,5.867 19.05,9.128 31.64,9.718 5.33,0.282 11,-0.082 16.98,-1.14 5.98,-1.039 11.63,-2.192 16.98,-3.379 25.81,-6.039 51.71,-15.25 75.74,-30.992 26.12,-17.129 47.28,-34.457 56.4,-59.5 v 0.91 163.179 c 0,0 -6.96,-24.496 -31.07,-34.214 -4.89,-1.61 -9.69,-2.832 -13.76,-3.438 -1.07,-0.137 -2.18,-0.246 -3.33,-0.328 -0.68,-0.055 -1.42,-0.055 -2.13,-0.082 -8.44,-0.219 -18.94,1.125 -26.65,2.215 -9.42,1.359 -18.86,3.629 -28.31,6.801 -9.44,3.164 -18.39,5.812 -26.89,7.918 -8.49,2.101 -17.14,3.628 -25.94,4.523 -8.81,0.906 -17.79,1.336 -26.92,1.336 -18.86,0 -36.96,-2.012 -54.27,-6.078 -17.28,-4.071 -33.49,-10.27 -48.6,-18.571 -15.09,-8.304 -28.63,-18.699 -40.57,-31.21 -9.36,-9.829 -17.47,-20.989 -24.32,-33.461 -0.08,-0.137 -0.13,-0.25 -0.22,-0.387 -15.39,-31.91 -29.02,-97.633 -16.63,-153.703 2.6,-10.731 5.93,-20.891 9.97,-30.469 2.1,-5 4.4,-9.828 6.91,-14.5 9.91,-18.539 22.46,-34.148 37.75,-46.82 15.24,-12.668 33.04,-22.25 53.33,-28.719 20.28,-6.5 43,-9.422 68.17,-8.82 10.07,0.3 20.36,1.8 30.9,4.5 10.54,2.73 21.16,5.738 31.86,9.07 10.71,3.328 21.46,6.461 32.33,9.5 10.86,3.027 21.45,4.75 31.86,5.211 10.37,0.437 20.58,-0.762 30.65,-3.633 10.08,-2.859 19.66,-8.348 28.78,-16.508 V 528.5 c 0,7.539 0.63,15.539 1.91,23.98 1.26,8.45 3.45,16.372 6.58,23.75 3.17,7.399 7.56,13.942 13.24,19.68 5.65,5.731 12.73,9.961 21.24,12.668 H 1922.4 c 12.89,-2.098 22.25,-6.027 28.07,-11.769"
         style="fill:#ffffff;fill-opacity:1;fill-rule:nonzero;stroke:none"
         id="path36" />
      <path
         d="M 261.32,2.01172 H 221.629 V 116.469 H 185.75 V 148.93 H 297.098 V 116.469 H 261.32 V 2.01172"
         style="fill:#ffffff;fill-opacity:1;fill-rule:nonzero;stroke:none"
         id="path38" />
      <path
         d="M 464.598,2.01172 H 424.703 V 61.9102 H 378.574 V 2.01172 H 338.68 V 148.93 h 39.894 V 94.4688 h 46.129 V 148.93 h 39.895 V 2.01172"
         style="fill:#ffffff;fill-opacity:1;fill-rule:nonzero;stroke:none"
         id="path40" />
      <path
         d="m 604.168,2.01172 h -87.23 V 148.93 h 87.23 V 117.078 H 556.637 V 93.9609 h 44.011 V 62.1094 H 556.637 V 34.3711 h 47.531 V 2.01172"
         style="fill:#ffffff;fill-opacity:1;fill-rule:nonzero;stroke:none"
         id="path42" />
      <path
         d="m 789.938,118.48 c -9.446,0 -16.813,-3.859 -22.106,-11.601 -5.297,-7.7384 -7.937,-18.4102 -7.937,-32.0079 0,-28.2695 10.75,-42.4102 32.253,-42.4102 6.5,0 12.797,0.9102 18.895,2.7188 6.094,1.8008 12.227,3.9805 18.391,6.5195 V 8.14063 C 817.176,2.71875 803.309,0 787.828,0 c -22.176,0 -39.176,6.42969 -51,19.3008 -11.824,12.8594 -17.734,31.4492 -17.734,55.7695 0,15.211 2.859,28.5707 8.594,40.1017 5.722,11.519 13.964,20.379 24.714,26.578 10.754,6.199 23.399,9.301 37.942,9.301 15.875,0 31.051,-3.449 45.519,-10.36 l -12.156,-31.25 c -5.43,2.547 -10.855,4.688 -16.281,6.43 -5.426,1.738 -11.254,2.609 -17.488,2.609"
         style="fill:#ffffff;fill-opacity:1;fill-rule:nonzero;stroke:none"
         id="path44" />
      <path
         d="m 918.352,85.3203 h 7.437 c 13.867,0 20.801,6.1289 20.801,18.3907 0,10.117 -6.801,15.18 -20.402,15.18 h -7.836 z m 0,-29.8515 V 2.01172 h -39.7 V 148.93 h 48.141 c 39.926,0 59.891,-14.469 59.891,-43.41 0,-17.02 -8.305,-30.1802 -24.918,-39.4887 L 1004.57,2.01172 H 959.555 L 928.398,55.4688 h -10.046"
         style="fill:#ffffff;fill-opacity:1;fill-rule:nonzero;stroke:none"
         id="path46" />
      <path
         d="m 1074.9,75.6719 c 0,-28.4024 9.88,-42.6016 29.65,-42.6016 10.05,0 17.5,3.4414 22.36,10.3399 4.86,6.9101 7.28,17.6601 7.28,32.2617 0,14.6797 -2.46,25.5081 -7.38,32.5081 -4.93,7.011 -12.28,10.511 -22.06,10.511 -19.9,0 -29.85,-14.339 -29.85,-43.0191 z m 101.1,0 c 0,-24.7227 -6.07,-43.5117 -18.19,-56.3711 C 1145.68,6.42969 1127.93,0 1104.55,0 c -23.05,0 -40.72,6.46875 -53.01,19.3984 -12.3,12.9297 -18.44,31.75 -18.44,56.4727 0,24.4569 6.11,43.1289 18.34,56.0269 12.22,12.891 29.99,19.34 53.31,19.34 23.38,0 41.1,-6.386 53.16,-19.187 12.06,-12.789 18.09,-31.59 18.09,-56.3791"
         style="fill:#ffffff;fill-opacity:1;fill-rule:nonzero;stroke:none"
         id="path48" />
      <path
         d="m 1381.79,2.01172 h -46.93 l -14.07,64.01958 c -0.67,2.6796 -1.73,8 -3.17,15.9687 -1.44,7.9805 -2.49,14.6406 -3.16,20.012 -0.54,-4.3636 -1.41,-9.7737 -2.61,-16.2425 -1.21,-6.4609 -2.4,-12.4101 -3.57,-17.8281 -1.18,-5.4297 -6.05,-27.4101 -14.63,-65.92968 h -46.92 L 1210.34,148.93 h 38.29 l 15.98,-73.6605 c 3.62,-16.2812 6.1,-29.2382 7.44,-38.8906 0.87,6.832 2.43,16.1094 4.67,27.8399 2.24,11.7226 4.34,21.4414 6.28,29.1406 l 12.96,55.5706 h 36.79 l 12.56,-55.5706 c 2.14,-8.9102 4.32,-19.1875 6.53,-30.8477 2.21,-11.6601 3.68,-20.3711 4.42,-26.1328 0.87,7.4414 3.25,20.332 7.14,38.6914 l 16.28,73.8597 h 38.28 L 1381.79,2.01172"
         style="fill:#ffffff;fill-opacity:1;fill-rule:nonzero;stroke:none"
         id="path50" />
      <path
         d="m 1597.43,2.01172 h -52.06 L 1491.71,105.52 h -0.91 c 1.28,-16.2817 1.92,-28.7114 1.92,-37.2817 V 2.01172 h -35.18 V 148.93 h 51.86 l 53.46,-102.1019 h 0.6 c -0.93,14.8125 -1.41,26.7032 -1.41,35.6836 V 148.93 h 35.38 V 2.01172"
         style="fill:#ffffff;fill-opacity:1;fill-rule:nonzero;stroke:none"
         id="path52" />
      <path
         d="M 1723.81,2.01172 V 148.93 h 39.9 V 2.01172 h -39.9"
         style="fill:#ffffff;fill-opacity:1;fill-rule:nonzero;stroke:none"
         id="path54" />
      <path
         d="m 1912.12,46.6289 c 0,-9.1094 -2.31,-17.1992 -6.94,-24.2695 C 1900.56,15.2891 1893.89,9.80078 1885.19,5.87891 1876.48,1.96094 1866.26,0 1854.54,0 c -9.79,0 -18,0.691406 -24.63,2.05859 -6.63,1.3711 -13.53,3.76954 -20.7,7.19141 v 35.3711 c 7.57,-3.8828 15.44,-6.9219 23.62,-9.0898 8.17,-2.1797 15.67,-3.2696 22.51,-3.2696 5.9,0 10.21,1.0196 12.96,3.0586 2.75,2.0508 4.12,4.6797 4.12,7.8906 0,2.0079 -0.55,3.7696 -1.66,5.2774 -1.1,1.5117 -2.88,3.0312 -5.32,4.5703 -2.45,1.543 -8.96,4.6914 -19.55,9.4531 -9.58,4.3477 -16.76,8.5781 -21.55,12.6602 -4.79,4.0898 -8.34,8.7773 -10.66,14.0664 -2.31,5.293 -3.46,11.5627 -3.46,18.7927 0,13.539 4.92,24.09 14.77,31.66 9.85,7.571 23.38,11.36 40.6,11.36 15.21,0 30.72,-3.52 46.53,-10.563 l -12.16,-30.648 c -13.74,6.301 -25.59,9.449 -35.58,9.449 -5.15,0 -8.91,-0.898 -11.25,-2.711 -2.35,-1.808 -3.52,-4.058 -3.52,-6.738 0,-2.879 1.49,-5.461 4.47,-7.738 2.98,-2.2817 11.07,-6.4301 24.27,-12.4614 12.67,-5.6914 21.46,-11.8125 26.38,-18.3398 4.93,-6.5313 7.39,-14.75 7.39,-24.6719"
         style="fill:#ffffff;fill-opacity:1;fill-rule:nonzero;stroke:none"
         id="path56" />
      <path
         d="m 2081.91,94.4688 25.32,54.4612 h 43.01 L 2101.91,59.3984 V 2.01172 h -40 V 58.1914 l -48.34,90.7386 h 43.21 l 25.13,-54.4612"
         style="fill:#ffffff;fill-opacity:1;fill-rule:nonzero;stroke:none"
         id="path58" />
      <path
         d="m 2223.09,75.6719 c 0,-28.4024 9.88,-42.6016 29.64,-42.6016 10.05,0 17.5,3.4414 22.36,10.3399 4.86,6.9101 7.29,17.6601 7.29,32.2617 0,14.6797 -2.47,25.5081 -7.39,32.5081 -4.92,7.011 -12.28,10.511 -22.06,10.511 -19.89,0 -29.84,-14.339 -29.84,-43.0191 z m 101.1,0 c 0,-24.7227 -6.07,-43.5117 -18.2,-56.3711 C 2293.87,6.42969 2276.11,0 2252.73,0 c -23.05,0 -40.71,6.46875 -53.01,19.3984 -12.3,12.9297 -18.44,31.75 -18.44,56.4727 0,24.4569 6.11,43.1289 18.34,56.0269 12.23,12.891 30,19.34 53.31,19.34 23.39,0 41.1,-6.386 53.17,-19.187 12.05,-12.789 18.09,-31.59 18.09,-56.3791"
         style="fill:#ffffff;fill-opacity:1;fill-rule:nonzero;stroke:none"
         id="path60" />
      <path
         d="M 2496.21,148.93 V 60.5 c 0,-19.2305 -5.45,-34.1211 -16.34,-44.6719 C 2468.99,5.28125 2453.29,0 2432.79,0 c -20.03,0 -35.42,5.12891 -46.17,15.3789 -10.76,10.25 -16.13,24.9922 -16.13,44.2109 V 148.93 h 39.89 V 62.7109 c 0,-10.3906 1.95,-17.9218 5.83,-22.6093 3.89,-4.6914 9.62,-7.0313 17.19,-7.0313 8.11,0 13.98,2.3203 17.63,6.9805 3.66,4.6484 5.48,12.2695 5.48,22.8594 V 148.93 h 39.7"
         style="fill:#ffffff;fill-opacity:1;fill-rule:nonzero;stroke:none"
         id="path62" />
      <path
         d="m 2587.34,85.3203 h 7.43 c 13.87,0 20.8,6.1289 20.8,18.3907 0,10.117 -6.8,15.18 -20.4,15.18 h -7.83 z m 0,-29.8515 V 2.01172 h -39.7 V 148.93 h 48.14 c 39.92,0 59.89,-14.469 59.89,-43.41 0,-17.02 -8.31,-30.1802 -24.92,-39.4887 l 42.81,-64.01958 h -45.02 l -31.16,53.45708 h -10.04"
         style="fill:#ffffff;fill-opacity:1;fill-rule:nonzero;stroke:none"
         id="path64" />
      <path
         d="m 2803.58,46.6289 c 0,-9.1094 -2.31,-17.1992 -6.94,-24.2695 C 2792.02,15.2891 2785.35,9.80078 2776.65,5.87891 2767.94,1.96094 2757.72,0 2746,0 c -9.79,0 -17.99,0.691406 -24.63,2.05859 -6.63,1.3711 -13.53,3.76954 -20.7,7.19141 v 35.3711 c 7.57,-3.8828 15.44,-6.9219 23.62,-9.0898 8.17,-2.1797 15.67,-3.2696 22.51,-3.2696 5.9,0 10.21,1.0196 12.96,3.0586 2.75,2.0508 4.12,4.6797 4.12,7.8906 0,2.0079 -0.55,3.7696 -1.66,5.2774 -1.1,1.5117 -2.88,3.0312 -5.32,4.5703 -2.45,1.543 -8.96,4.6914 -19.55,9.4531 -9.58,4.3477 -16.76,8.5781 -21.55,12.6602 -4.79,4.0898 -8.34,8.7773 -10.66,14.0664 -2.31,5.293 -3.46,11.5627 -3.46,18.7927 0,13.539 4.92,24.09 14.77,31.66 9.85,7.571 23.38,11.36 40.6,11.36 15.21,0 30.72,-3.52 46.53,-10.563 l -12.16,-30.648 c -13.74,6.301 -25.59,9.449 -35.58,9.449 -5.15,0 -8.91,-0.898 -11.25,-2.711 -2.35,-1.808 -3.52,-4.058 -3.52,-6.738 0,-2.879 1.49,-5.461 4.47,-7.738 2.98,-2.2817 11.07,-6.4301 24.27,-12.4614 12.67,-5.6914 21.46,-11.8125 26.38,-18.3398 4.93,-6.5313 7.39,-14.75 7.39,-24.6719"
         style="fill:#ffffff;fill-opacity:1;fill-rule:nonzero;stroke:none"
         id="path66" />
    </g>
  </g>
</svg>
